<svg version="1.1" viewBox="0.0 0.0 280.5196850393701 219.00787401574803" fill="none" stroke="none" stroke-linecap="square" stroke-miterlimit="10" xmlns:xlink="http://www.w3.org/1999/xlink" xmlns="http://www.w3.org/2000/svg"><clipPath id="p.0"><path d="m0 0l280.51968 0l0 219.00787l-280.51968 0l0 -219.00787z" clip-rule="nonzero"/></clipPath><g clip-path="url(#p.0)"><path fill="#000000" fill-opacity="0.0" d="m0 0l280.51968 0l0 219.00787l-280.51968 0z" fill-rule="evenodd"/><path fill="#ffffff" d="m1.2099738 5.2440944l261.7638 0l0 193.6063l-261.7638 0z" fill-rule="evenodd"/><path stroke="#000000" stroke-width="1.0" stroke-linejoin="round" stroke-linecap="butt" d="m1.2099738 5.2440944l261.7638 0l0 193.6063l-261.7638 0z" fill-rule="evenodd"/><path fill="#000000" fill-opacity="0.0" d="m37.280838 149.36482l190.01575 0" fill-rule="evenodd"/><path stroke="#000000" stroke-width="1.0" stroke-linejoin="round" stroke-linecap="butt" d="m37.280838 149.36482l184.01575 0" fill-rule="evenodd"/><path fill="#000000" stroke="#000000" stroke-width="1.0" stroke-linecap="butt" d="m221.29659 151.01656l4.538101 -1.6517334l-4.538101 -1.6517181z" fill-rule="evenodd"/><path fill="#000000" fill-opacity="0.0" d="m38.280838 148.86613l0 -98.99212" fill-rule="evenodd"/><path stroke="#000000" stroke-width="1.0" stroke-linejoin="round" stroke-linecap="butt" d="m38.280838 148.86613l0 -92.99212" fill-rule="evenodd"/><path fill="#000000" stroke="#000000" stroke-width="1.0" stroke-linecap="butt" d="m39.93257 55.874016l-1.6517334 -4.5380974l-1.6517296 4.5380974z" fill-rule="evenodd"/><path fill="#000000" fill-opacity="0.0" d="m25.036745 13.364829l26.488188 0l0 42.015747l-26.488188 0z" fill-rule="evenodd"/><path fill="#000000" d="m35.192997 44.00358l-0.1875 -1.53125q0.546875 0.140625 0.9375 0.140625q0.546875 0 0.875 -0.1875q0.328125 -0.171875 0.546875 -0.5q0.15625 -0.25 0.5 -1.21875q0.046875 -0.140625 0.140625 -0.40625l-3.671875 -9.6875l1.765625 0l2.015625 5.59375q0.390625 1.078125 0.703125 2.25q0.28125 -1.125 0.671875 -2.203125l2.078125 -5.640625l1.640625 0l-3.6875 9.828125q-0.59375 1.609375 -0.921875 2.203125q-0.4375 0.8125 -1.0 1.1875q-0.5625 0.375 -1.34375 0.375q-0.484375 0 -1.0625 -0.203125z" fill-rule="nonzero"/><path fill="#000000" fill-opacity="0.0" d="m227.29659 126.37795l26.48819 0l0 42.015755l-26.48819 0z" fill-rule="evenodd"/><path fill="#000000" d="m236.43721 153.29796l3.53125 -5.03125l-3.265625 -4.640625l2.046875 0l1.484375 2.265625q0.421875 0.640625 0.671875 1.078125q0.40625 -0.59375 0.734375 -1.0625l1.640625 -2.28125l1.953125 0l-3.34375 4.546875l3.59375 5.125l-2.015625 0l-1.984375 -3.0l-0.515625 -0.8125l-2.546875 3.8125l-1.984375 0z" fill-rule="nonzero"/><path fill="#ff9900" d="m11.288713 152.38583l0 0c0 -14.907349 12.084787 -26.992134 26.992125 -26.992134l0 0c7.15876 0 14.024311 2.8438034 19.086319 7.905815c5.062004 5.0619965 7.9058075 11.927551 7.9058075 19.086319l0 0c0 14.907333 -12.084785 26.992126 -26.992126 26.992126l0 0c-14.907337 0 -26.992125 -12.084793 -26.992125 -26.992126z" fill-rule="evenodd"/><path stroke="#000000" stroke-width="2.0" stroke-linejoin="round" stroke-linecap="butt" d="m11.288713 152.38583l0 0c0 -14.907349 12.084787 -26.992134 26.992125 -26.992134l0 0c7.15876 0 14.024311 2.8438034 19.086319 7.905815c5.062004 5.0619965 7.9058075 11.927551 7.9058075 19.086319l0 0c0 14.907333 -12.084785 26.992126 -26.992126 26.992126l0 0c-14.907337 0 -26.992125 -12.084793 -26.992125 -26.992126z" fill-rule="evenodd"/><path fill="#cfe2f3" d="m24.335958 145.56693l20.755903 0l0 -6.8188934l13.637798 13.637802l-13.637798 13.637787l0 -6.8188934l-20.755903 0z" fill-rule="evenodd"/><path stroke="#000000" stroke-width="1.0" stroke-linejoin="round" stroke-linecap="butt" d="m24.335958 145.56693l20.755903 0l0 -6.8188934l13.637798 13.637802l-13.637798 13.637787l0 -6.8188934l-20.755903 0z" fill-rule="evenodd"/><path fill="#000000" d="m12.782153 118.36483l52.49081 0l0 4.5013123l-52.49081 0z" fill-rule="evenodd"/><path stroke="#000000" stroke-width="1.0" stroke-linejoin="round" stroke-linecap="butt" d="m12.782153 118.36483l52.49081 0l0 4.5013123l-52.49081 0z" fill-rule="evenodd"/><path fill="#000000" d="m12.035434 181.90552l52.49081 0l0 4.5013123l-52.49081 0z" fill-rule="evenodd"/><path stroke="#000000" stroke-width="1.0" stroke-linejoin="round" stroke-linecap="butt" d="m12.035434 181.90552l52.49081 0l0 4.5013123l-52.49081 0z" fill-rule="evenodd"/></g></svg>